<?xml version="1.0" encoding="UTF-8"?>
<svg width="435px" height="304px" viewBox="0 0 435 304" version="1.1" xmlns="http://www.w3.org/2000/svg" xmlns:xlink="http://www.w3.org/1999/xlink">
    <!-- Generator: Sketch 43.2 (39069) - http://www.bohemiancoding.com/sketch -->
    <title>Logo</title>
    <desc>Created with Sketch.</desc>
    <defs></defs>
    <g id="Logo" stroke="none" stroke-width="1" fill="none" fill-rule="evenodd">
        <g>
            <rect id="Rectangle" fill="#FED700" x="0" y="0" width="435" height="304"></rect>
            <g id="Main-Logo-Copy" transform="translate(68.000000, 83.000000)">
                <text id="Mr-Cocktail" font-family="Yesteryear-Regular, Yesteryear" font-size="40" font-weight="normal" fill="#161925">
                    <tspan x="128" y="78">Mr Cocktail</tspan>
                </text>
                <g id="bartender" fill-rule="nonzero" fill="#000000">
                    <path d="M85.0936964,78.5752417 C84.7895101,77.9503294 84.2189328,77.5062144 83.5495666,77.3734873 C80.2947475,76.729347 78.5806697,74.2566706 76.766239,71.6384483 C74.9802199,69.0618869 72.9559607,66.1408226 69.3482125,66.1408226 C67.6674987,66.1408226 65.8984223,66.7740136 63.8611302,68.1165068 C61.8240988,66.7740136 60.0550224,66.1408226 58.3740479,66.1408226 C54.7655178,66.1408226 52.7412586,69.0618869 50.9555001,71.6387154 C49.1413301,74.2566706 47.4277736,76.729347 44.1724331,77.3734873 C43.503067,77.5059474 42.9319683,77.9503294 42.6277821,78.5752417 C42.3235958,79.2004211 42.3209892,79.9350936 42.620223,80.5624094 C42.7787023,80.8948947 46.6061839,88.7041618 55.3918756,88.7046959 L55.3929183,88.7046959 C58.0722076,88.7046959 60.9162318,87.9529318 63.8608696,86.4688986 C66.8052466,87.9531988 69.6497922,88.7046959 72.3293422,88.7046959 C81.1165978,88.7046959 84.9430369,80.8946277 85.1015161,80.5621423 C85.4007499,79.9345595 85.3978827,79.200154 85.0936964,78.5752417 Z M72.3296028,84.2165439 C70.0738805,84.2165439 67.5770509,83.4610409 64.9092305,81.9711326 C64.5823671,81.7887329 64.221879,81.6973996 63.8611302,81.6973996 C63.5003815,81.6973996 63.1396327,81.7887329 62.81303,81.9711326 C60.1449489,83.4607739 57.6486406,84.2165439 55.3934396,84.2165439 L55.3926576,84.2165439 C51.8386047,84.2162768 49.4356114,82.3260507 48.0426625,80.735462 C51.1035531,79.1769201 52.9630773,76.4935361 54.5275383,74.2366413 C56.0779238,71.9992417 57.0931813,70.6281735 58.3745692,70.6281735 C59.0710437,70.6281735 60.3620759,70.9788187 62.5552406,72.6481891 C63.3304334,73.238384 64.3920877,73.238384 65.1672805,72.6481891 C67.3609665,70.9788187 68.6514774,70.6281735 69.3479519,70.6281735 C70.6290791,70.6281735 71.644076,71.9992417 73.1947221,74.2363743 C74.7589224,76.4935361 76.618968,79.1771871 79.6798586,80.7351949 C78.2856064,82.3279201 75.8828738,84.2165439 72.3296028,84.2165439 Z" id="Shape"></path>
                    <ellipse id="Oval" cx="50.2535519" cy="57.350924" rx="3.53059379" ry="3.6172807"></ellipse>
                    <path d="M55.7974573,41.8397466 L49.965787,41.8397466 C45.5390558,41.8397466 41.9375634,45.5296667 41.9375634,50.0648207 C41.9375634,51.303963 42.9181535,52.3086296 44.1276002,52.3086296 L55.7971967,52.3086296 C57.0066433,52.3086296 57.9872335,51.30423 57.9872335,50.0648207 L57.9872335,44.0835556 C57.9874942,42.8438791 57.006904,41.8397466 55.7974573,41.8397466 Z M53.6074205,47.8210117 L47.0503428,47.8210117 C47.7168417,46.9143548 48.7756289,46.3273645 49.9660476,46.3273645 L53.6074205,46.3273645 L53.6074205,47.8210117 Z" id="Shape"></path>
                    <ellipse id="Oval" cx="77.4663627" cy="57.350924" rx="3.53059379" ry="3.6172807"></ellipse>
                    <path d="M85.7820905,49.8714717 C85.6809557,45.4249805 82.1193438,41.8394795 77.7559522,41.8394795 L71.9242818,41.8394795 C70.7148351,41.8394795 69.734245,42.8438791 69.734245,44.0832885 L69.734245,50.0645536 C69.734245,51.303963 70.7148351,52.3083626 71.9242818,52.3083626 L83.5938783,52.3083626 L83.5996127,52.3083626 C84.8090594,52.3083626 85.7896495,51.303963 85.7896495,50.0645536 C85.7901709,49.9996589 85.7875643,49.9350312 85.7820905,49.8714717 Z M74.1143187,47.8210117 L74.1143187,46.3273645 L77.7556915,46.3273645 C78.9463709,46.3273645 80.005158,46.9143548 80.6711357,47.8210117 L74.1143187,47.8210117 Z" id="Shape"></path>
                    <path d="M126.755746,124.307871 C126.523761,123.091162 125.372702,122.297203 124.186193,122.535417 C124.036576,122.565327 123.893997,122.610193 123.758716,122.668144 C122.816182,123.068195 122.246647,124.104908 122.449959,125.170464 C122.895682,127.505873 123.174063,129.876534 123.282496,132.244791 L101.423312,132.244791 L101.423312,93.6951813 C109.452317,98.9340292 115.902004,106.690953 119.61584,115.675269 C120.038104,116.69676 121.11253,117.229004 122.131958,116.983045 C122.253685,116.953936 122.37489,116.916548 122.493749,116.864739 C123.607535,116.381901 124.128066,115.064778 123.656539,113.923645 C119.059859,102.799405 110.670626,93.4599045 100.257916,87.8041813 C100.234196,87.7913626 100.209173,87.7825497 100.185193,87.7707992 C99.3391015,87.3125302 98.4810199,86.8756257 97.6091235,86.465694 C99.7423372,82.5220702 101.047184,78.0835906 101.35111,73.4098343 C107.902453,73.3684405 113.220369,67.8969864 113.220369,61.1751735 C113.220369,54.4779298 107.941552,49.0230331 101.423572,48.942115 L101.423572,38.4847154 C101.423572,17.2641365 84.5729045,0 63.8608696,0 C43.1488346,0 26.2986881,17.2641365 26.2986881,38.4849825 L26.2986881,48.9423821 C19.7807089,49.0235673 14.5016305,54.4781969 14.5016305,61.1754405 C14.5016305,67.8991228 19.8221533,73.3716452 26.3758424,73.4103684 C26.6818533,77.9943938 27.9697576,82.4601131 30.1313829,86.4552788 C24.607548,89.0374483 19.613628,92.5772827 15.2577954,97.0018752 C14.3986712,97.8743489 14.3929367,99.2950897 15.2476297,100.178246 C16.0994555,101.058464 17.4858881,101.064873 18.3450122,100.192133 C20.7719859,97.7274678 23.4369391,95.5482865 26.2984274,93.6855673 L26.2984274,132.24586 L4.43820011,132.24586 C4.50831673,130.676903 4.65480575,129.119162 4.87089008,127.576109 C4.88001306,127.513084 4.88600816,127.449257 4.89513114,127.385698 C5.0293693,126.452869 5.1951469,125.526984 5.38203769,124.606173 C5.40940664,124.471043 5.43260508,124.334577 5.4612773,124.199179 C5.47378882,124.14016 5.48864625,124.082209 5.50167908,124.023189 C6.73745207,118.292423 8.98717927,112.828446 12.1841326,107.878019 C12.8099691,106.908604 12.6056143,105.624596 11.7464902,104.904345 C11.688885,104.856275 11.628934,104.810608 11.5658551,104.767612 C10.5568534,104.083146 9.19831113,104.367294 8.53076955,105.40107 C4.76037168,111.240528 2.19394669,117.731604 0.926112937,124.536739 C0.904999752,124.649704 0.882322626,124.762669 0.862252067,124.875901 C0.860166815,124.887651 0.858342218,124.899135 0.856517622,124.910885 C0.294802626,128.049333 0.00886232476,131.252676 0.00886232476,134.489402 C0.00886232476,135.728811 0.989452493,136.733211 2.19889917,136.733211 L28.4892462,136.733211 L99.2337962,136.733211 L125.524143,136.733211 C126.73359,136.733211 127.71418,135.728811 127.71418,134.489402 C127.713919,131.066004 127.391487,127.64047 126.755746,124.307871 Z M101.423572,58.2143177 L101.423572,53.4275965 C105.526568,53.5077135 108.840296,56.9522086 108.840296,61.1751735 C108.840296,65.3976043 105.526568,68.8423665 101.423572,68.9224834 L101.423572,58.2143177 Z M26.2986881,58.2143177 L26.2986881,68.9224834 C22.1956924,68.8423665 18.8817042,65.3978713 18.8817042,61.1751735 C18.8817042,56.9524756 22.1954317,53.5077135 26.2986881,53.4275965 L26.2986881,58.2143177 Z M30.6787617,132.245058 L30.6787617,132.245058 L30.6787617,91.1565419 C30.8453213,91.0724191 31.0131842,90.991501 31.1805257,90.9089805 L59.6364079,132.245058 L30.6787617,132.245058 Z M41.7438955,98.4674815 C42.1327952,98.6934113 42.5287326,98.9073236 42.9283191,99.1161618 C42.9350962,99.1196335 42.9418733,99.1233723 42.9483897,99.1268441 C42.8514254,99.3607856 42.7661907,99.5998012 42.6906003,99.8425556 L41.7438955,98.4674815 Z M46.7005416,102.393212 C46.7096646,101.401899 47.0787544,100.410318 47.7572435,99.7007485 C48.9140376,98.4917836 50.8316882,98.2153801 52.2689488,99.0408519 L56.2846245,101.347686 L56.2846245,103.438739 L52.2689488,105.745039 C50.3812736,106.828487 47.8716718,105.971236 47.0002967,103.934129 C46.7930747,103.449421 46.6955891,102.92145 46.7005416,102.393212 Z M50.1839566,110.72778 C50.3760605,111.006854 52.1469615,110.550721 52.4368116,110.472474 C52.7709734,110.382476 57.7187572,107.828347 57.681744,107.781345 C58.5791847,108.919807 59.8425873,109.717772 61.2733314,110.019813 C61.2863642,110.022483 61.2996577,110.025154 61.3129512,110.027825 C62.8927909,110.341082 64.8281662,110.353634 66.4098306,110.027825 C66.4226027,110.025154 66.4351143,110.022483 66.4481471,110.02008 C67.8794125,109.718306 69.1428151,108.920341 70.0405165,107.781612 C72.4145769,109.144936 74.6736877,110.826057 77.5250104,110.728581 L77.5377826,110.728581 L63.8611302,130.595717 C63.8611302,130.595717 50.1849992,110.729115 50.1839566,110.72778 Z M60.6652195,103.733035 L60.6652195,101.052589 C60.6652195,100.911583 60.6826835,100.766571 60.7189148,100.608474 C60.9146679,99.754961 61.697159,99.1188324 62.5531554,99.1188324 L65.1693657,99.1188324 C65.2725858,99.1188324 65.3734599,99.1292476 65.4730307,99.1460721 C65.4829357,99.1479415 65.4928406,99.1490097 65.5027456,99.1508791 C66.23493,99.2886803 66.8419992,99.8697953 67.0062129,100.634378 C67.0067342,100.63785 67.0077768,100.641322 67.0109047,100.652538 C67.038013,100.781259 67.0565196,100.916657 67.0567803,101.048583 C67.0567803,101.060333 67.0567803,101.07155 67.0570409,101.083567 L67.0570409,103.711671 L67.0570409,103.735973 C67.0570409,103.800867 67.0523491,103.867097 67.0447901,103.934663 C67.0432261,103.939737 67.0424442,103.94668 67.0419228,103.951754 C67.0411409,103.957363 67.0403589,103.962437 67.0398376,103.968312 C67.0309753,104.035877 67.0195064,104.104511 67.0028243,104.17715 C66.8073319,105.030663 66.0248407,105.667326 65.1688444,105.667326 L62.552634,105.667326 C61.5475421,105.667326 60.6652195,104.771618 60.6652195,103.733035 Z M71.4368539,103.438739 L71.4368539,101.347686 L75.4525297,99.0408519 C76.974243,98.1673099 79.0157056,98.5390526 80.1469552,99.9071832 C81.1356258,101.102795 81.3001001,102.942548 80.5400254,104.302133 C79.540668,106.089542 77.1994503,106.748904 75.4525297,105.744772 L71.4368539,103.438739 Z M68.0855919,132.245058 L96.5393888,90.9116511 C96.7075123,90.9944386 96.8761572,91.0772261 97.043238,91.161883 L97.043238,132.245058 L68.0855919,132.245058 Z M84.7746527,99.1297817 C84.8757875,99.0769045 84.9753583,99.0208226 85.0757111,98.9671442 C85.3574809,98.8165244 85.6363835,98.6618986 85.9124188,98.5035341 C85.9340533,98.4909825 85.9564698,98.4797661 85.9781043,98.4672144 L85.0321814,99.8409532 C85.0269683,99.8238616 85.0194093,99.8075712 85.0136748,99.7904795 C84.9430369,99.5685556 84.8648399,99.3493021 84.775956,99.1343216 C84.775956,99.1327193 84.7756953,99.131384 84.7746527,99.1297817 Z M84.8611907,93.9114971 C83.9194384,94.5249259 82.9396302,95.0723918 81.9275006,95.5541618 C81.8104657,95.6097096 79.8779576,94.4854016 79.5659517,94.3919318 C77.4770496,93.764883 75.2082944,94.0370136 73.310975,95.1266043 L70.0324361,97.0096199 C69.3156305,96.1064347 68.3629305,95.4112865 67.2733859,95.01177 C67.2580072,95.0061618 67.2426284,95.0000195 67.2272497,94.9944113 C67.1159493,94.9546199 67.0041276,94.9169649 66.8902207,94.8833158 C65.1521624,94.3732378 63.0799424,94.4044834 61.3126905,94.7588674 C61.2996577,94.761538 61.2863642,94.7642086 61.2733314,94.7668791 C59.8423266,95.068653 58.5791847,95.8666179 57.6814833,97.005347 L54.4105035,95.1268713 C51.7207879,93.5819493 48.3226077,93.7461891 45.7968451,95.5520253 C36.6884606,91.1845828 30.6782404,81.614078 30.6782404,71.2950136 L30.6782404,71.1681618 L30.6782404,60.2415439 C30.6954438,60.2380721 30.7123864,60.2335322 30.7298504,60.2297934 C30.7973605,60.2159064 30.8638279,60.199616 30.9310773,60.1846608 C31.0382072,60.1603587 31.1450764,60.1357895 31.2511637,60.1085497 C31.3225836,60.0903899 31.3937428,60.0703606 31.4646414,60.0505984 C33.7714524,59.4096628 35.8686955,57.9966667 37.3633005,56.0864113 C38.9658174,54.0378207 39.8661253,51.4284113 39.8661253,48.8000409 L39.8661253,33.4298694 C39.8661253,28.4265653 43.8390533,24.3560897 48.7224549,24.3560897 L78.9977202,24.3560897 C83.8811218,24.3560897 87.8540499,28.4265653 87.8540499,33.4298694 L87.8540499,48.8024444 C87.8540499,51.5090624 88.8127449,54.1977875 90.5067522,56.2736179 C92.1504528,58.2877583 94.4768131,59.7135731 96.9905854,60.2295263 C97.0077887,60.2329981 97.0247314,60.237538 97.0419348,60.2412768 L97.0419348,71.1705653 L97.0419348,71.2950136 L97.0424561,71.2950136 C97.043238,80.3322066 92.3287419,89.0489318 84.8611907,93.9114971 Z M97.043238,51.1821852 L97.043238,55.6086472 C94.2440467,54.6792904 92.2351662,51.8065634 92.2351662,48.8000409 L92.2351662,33.4301365 C92.2351662,25.9522865 86.2974086,19.8687388 78.9987629,19.8687388 L48.7234976,19.8687388 C41.4248518,19.8687388 35.4870942,25.9522865 35.4870942,33.4301365 L35.4870942,48.8011092 C35.4870942,51.7972164 33.5040187,54.6229415 30.7397554,55.5878168 C30.7196848,55.5950273 30.6993536,55.6022378 30.6790224,55.6091813 L30.6790224,51.1827193 L30.6790224,38.4852495 C30.6790224,19.7389493 45.5646001,4.48788499 63.8613909,4.48788499 C82.1581817,4.48788499 97.0434987,19.7389493 97.0434987,38.4849825 C97.043238,38.4849825 97.043238,51.1795146 97.043238,51.1821852 Z" id="Shape"></path>
                </g>
            </g>
        </g>
    </g>
</svg>